<?xml version="1.0" standalone="no"?>
<!DOCTYPE svg PUBLIC "-//W3C//DTD SVG 1.1//EN" "http://www.w3.org/Graphics/SVG/1.1/DTD/svg11.dtd" >
<svg xmlns="http://www.w3.org/2000/svg">
<metadata></metadata>
<defs>
<font id="liquidcrystalnormal" horiz-adv-x="1085" >
<font-face units-per-em="2048" ascent="1638" descent="-410" />
<missing-glyph horiz-adv-x="409" />
<glyph horiz-adv-x="0" />
<glyph unicode="&#xd;" horiz-adv-x="409" />
<glyph unicode=" "  horiz-adv-x="409" />
<glyph unicode="&#x09;" horiz-adv-x="409" />
<glyph unicode="&#xa0;" horiz-adv-x="409" />
<glyph unicode="!" horiz-adv-x="1024" d="M49 930l51 497q12 39 29 58l14 14l148 -160l-43 -383l-68 -53l-74 -53q-6 4 -10 8q-10 10 -24 33zM51 68l150 155h442l143 -151l-18 -19q-20 -18 -35 -20h-606q-27 0 -53 16zM127 821q10 10 21.5 20.5t60.5 51.5l39 29h457l43 -41q41 -42 47 -60q-8 -8 -13 -14 q-18 -23 -39 -41l-53 -47h-459l-51 45q-49 47 -53 57zM172 1526l16 14q18 12 45 16h574l35 -10q35 -12 35 -28q0 -12 -70 -91l-70 -75h-405zM721 944l51 391l64 76q66 74 77 74q12 0 39 -39l23 -39l-57 -508l-37 -31q-37 -31 -47 -30q-12 2 -66 55z" />
<glyph unicode="&#x22;" horiz-adv-x="1007" d="M41 930l51 497q12 39 29 58l14 14l148 -160l-43 -383l-68 -53l-74 -53q-6 4 -10 8q-10 10 -25 33zM713 944l51 391l63 76q66 74 78 74t39 -39l23 -39l-58 -508l-37 -31q-37 -31 -47 -30q-12 2 -65 55z" />
<glyph unicode="'" horiz-adv-x="323" d="M41 930l51 497q12 39 29 58l14 14l148 -160l-43 -383l-68 -53l-74 -53q-6 4 -10 8q-10 10 -25 33z" />
<glyph unicode="(" horiz-adv-x="985" d="M41 199l63 551l27 24q29 23 41 23q14 -10 23 -19q25 -23 61 -59l37 -37l-43 -432l-154 -160q-12 6 -33 41q-6 12 -12 32.5t-10 35.5zM119 930l51 497q12 39 29 58l14 14l147 -160l-43 -383l-67 -53l-74 -53q-6 4 -10 8q-10 10 -25 33zM121 68l149 155h443l143 -151 l-18 -19q-20 -18 -35 -20h-606q-27 0 -54 16zM242 1526l16 14q18 12 45 16h574l34 -10q35 -12 35 -28q0 -12 -69 -91l-70 -75h-406z" />
<glyph unicode=")" horiz-adv-x="1007" d="M43 68l150 155h442l143 -151l-18 -19q-20 -18 -35 -20h-606q-27 0 -53 16zM164 1526l16 14q18 12 45 16h574l35 -10q35 -12 34 -28q0 -12 -69 -91l-70 -75h-405zM655 252l50 444l51 52q55 49 65 49q12 0 53 -33l37 -31l-59 -557q-2 -14 -4 -18q-10 -27 -45 -56 q-14 4 -80 76zM713 944l51 391l63 76q66 74 78 74t39 -39l23 -39l-58 -508l-37 -31q-37 -31 -47 -30q-12 2 -65 55z" />
<glyph unicode="," horiz-adv-x="985" d="M41 199l63 551l27 24q29 23 41 23q14 -10 23 -19q25 -23 61 -59l37 -37l-43 -432l-154 -160q-12 6 -33 41q-6 12 -12 32.5t-10 35.5z" />
<glyph unicode="-" horiz-adv-x="751" d="M43 821q10 10 21.5 20.5t60.5 51.5l39 29h457l43 -41q41 -42 47 -60q-8 -8 -13 -14q-18 -23 -39 -41l-53 -47h-459l-51 45q-49 47 -53 57z" />
<glyph unicode="." horiz-adv-x="315" d="M55 -8l8 180h205l-16 -180h-197z" />
<glyph unicode="/" horiz-adv-x="1083" d="M41 199l63 551l27 24q29 23 41 23q14 -10 23 -19q25 -23 61 -59l37 -37l-43 -432l-154 -160q-12 6 -33 41q-6 12 -12 32.5t-10 35.5zM197 821q10 10 21 20.5t61 51.5l38 29h457l43 -41q41 -42 47 -60q-8 -8 -12 -14q-18 -23 -39 -41l-53 -47h-459l-51 45q-49 47 -53 57z M791 944l51 391l63 76q66 74 78 74t39 -39l22 -39l-57 -508l-37 -31q-37 -31 -47 -30q-12 2 -65 55z" />
<glyph unicode="0" d="M41 199l63 551l27 24q29 23 41 23q14 -10 23 -19q25 -23 61 -59l37 -37l-43 -432l-154 -160q-12 6 -33 41q-6 12 -12 32.5t-10 35.5zM119 930l51 497q12 39 29 58l14 14l147 -160l-43 -383l-67 -53l-74 -53q-6 4 -10 8q-10 10 -25 33zM121 68l149 155h443l143 -151 l-18 -19q-20 -18 -35 -20h-606q-27 0 -54 16zM242 1526l16 14q18 12 45 16h574l34 -10q35 -12 35 -28q0 -12 -69 -91l-70 -75h-406zM733 252l49 444l52 52q55 49 65 49q12 0 53 -33l37 -31l-59 -557q-2 -14 -4 -18q-10 -27 -45 -56q-14 4 -80 76zM791 944l51 391l63 76 q66 74 78 74t39 -39l22 -39l-57 -508l-37 -31q-37 -31 -47 -30q-12 2 -65 55z" />
<glyph unicode="1" horiz-adv-x="395" d="M37 252l49 444l51 52q55 49 66 49q12 0 53 -33l37 -31l-60 -557q-2 -14 -4 -18q-10 -27 -45 -56q-14 4 -80 76zM94 944l51 391l64 76q66 74 78 74t39 -39l22 -39l-57 -508l-37 -31q-37 -31 -47 -30q-12 2 -66 55z" />
<glyph unicode="2" d="M41 199l63 551l27 24q29 23 41 23q14 -10 23 -19q25 -23 61 -59l37 -37l-43 -432l-154 -160q-12 6 -33 41q-6 12 -12 32.5t-10 35.5zM121 68l149 155h443l143 -151l-18 -19q-20 -18 -35 -20h-606q-27 0 -54 16zM197 821q10 10 21 20.5t61 51.5l38 29h457l43 -41 q41 -42 47 -60q-8 -8 -12 -14q-18 -23 -39 -41l-53 -47h-459l-51 45q-49 47 -53 57zM242 1526l16 14q18 12 45 16h574l34 -10q35 -12 35 -28q0 -12 -69 -91l-70 -75h-406zM791 944l51 391l63 76q66 74 78 74t39 -39l22 -39l-57 -508l-37 -31q-37 -31 -47 -30q-12 2 -65 55z " />
<glyph unicode="3" horiz-adv-x="1015" d="M43 68l150 155h442l143 -151l-18 -19q-20 -18 -35 -20h-606q-27 0 -53 16zM119 821q10 10 21.5 20.5t60.5 51.5l39 29h456l43 -41q41 -42 47 -60q-8 -8 -12 -14q-18 -23 -39 -41l-53 -47h-459l-51 45q-49 47 -53 57zM164 1526l16 14q18 12 45 16h574l35 -10 q35 -12 34 -28q0 -12 -69 -91l-70 -75h-405zM655 252l50 444l51 52q55 49 65 49q12 0 53 -33l37 -31l-59 -557q-2 -14 -4 -18q-10 -27 -45 -56q-14 4 -80 76zM713 944l51 391l63 76q66 74 78 74t39 -39l23 -39l-58 -508l-37 -31q-37 -31 -47 -30q-12 2 -65 55z" />
<glyph unicode="4" horiz-adv-x="1007" d="M41 930l51 497q12 39 29 58l14 14l148 -160l-43 -383l-68 -53l-74 -53q-6 4 -10 8q-10 10 -25 33zM119 821q10 10 21.5 20.5t60.5 51.5l39 29h456l43 -41q41 -42 47 -60q-8 -8 -12 -14q-18 -23 -39 -41l-53 -47h-459l-51 45q-49 47 -53 57zM655 252l50 444l51 52 q55 49 65 49q12 0 53 -33l37 -31l-59 -557q-2 -14 -4 -18q-10 -27 -45 -56q-14 4 -80 76zM713 944l51 391l63 76q66 74 78 74t39 -39l23 -39l-58 -508l-37 -31q-37 -31 -47 -30q-12 2 -65 55z" />
<glyph unicode="5" horiz-adv-x="960" d="M41 930l51 497q12 39 29 58l14 14l148 -160l-43 -383l-68 -53l-74 -53q-6 4 -10 8q-10 10 -25 33zM43 68l150 155h442l143 -151l-18 -19q-20 -18 -35 -20h-606q-27 0 -53 16zM119 821q10 10 21.5 20.5t60.5 51.5l39 29h456l43 -41q41 -42 47 -60q-8 -8 -12 -14 q-18 -23 -39 -41l-53 -47h-459l-51 45q-49 47 -53 57zM164 1526l16 14q18 12 45 16h574l35 -10q35 -12 34 -28q0 -12 -69 -91l-70 -75h-405zM655 252l50 444l51 52q55 49 65 49q12 0 53 -33l37 -31l-59 -557q-2 -14 -4 -18q-10 -27 -45 -56q-14 4 -80 76z" />
<glyph unicode="6" horiz-adv-x="1038" d="M41 199l63 551l27 24q29 23 41 23q14 -10 23 -19q25 -23 61 -59l37 -37l-43 -432l-154 -160q-12 6 -33 41q-6 12 -12 32.5t-10 35.5zM119 930l51 497q12 39 29 58l14 14l147 -160l-43 -383l-67 -53l-74 -53q-6 4 -10 8q-10 10 -25 33zM121 68l149 155h443l143 -151 l-18 -19q-20 -18 -35 -20h-606q-27 0 -54 16zM197 821q10 10 21 20.5t61 51.5l38 29h457l43 -41q41 -42 47 -60q-8 -8 -12 -14q-18 -23 -39 -41l-53 -47h-459l-51 45q-49 47 -53 57zM242 1526l16 14q18 12 45 16h574l34 -10q35 -12 35 -28q0 -12 -69 -91l-70 -75h-406z M733 252l49 444l52 52q55 49 65 49q12 0 53 -33l37 -31l-59 -557q-2 -14 -4 -18q-10 -27 -45 -56q-14 4 -80 76z" />
<glyph unicode="7" horiz-adv-x="899" d="M49 1526l17 14q18 12 45 16h573l35 -10q35 -12 35 -28q0 -12 -70 -91l-70 -75h-405zM541 252l49 444l51 52q55 49 66 49q12 0 53 -33l37 -31l-60 -557q-2 -14 -4 -18q-10 -27 -45 -56q-14 4 -80 76zM598 944l51 391l64 76q66 74 78 74t38 -39l23 -39l-57 -508l-37 -31 q-37 -31 -47 -30q-12 2 -66 55z" />
<glyph unicode="8" horiz-adv-x="1093" d="M41 199l63 551l27 24q29 23 41 23q14 -10 23 -19q25 -23 61 -59l37 -37l-43 -432l-154 -160q-12 6 -33 41q-6 12 -12 32.5t-10 35.5zM119 930l51 497q12 39 29 58l14 14l147 -160l-43 -383l-67 -53l-74 -53q-6 4 -10 8q-10 10 -25 33zM121 68l149 155h443l143 -151 l-18 -19q-20 -18 -35 -20h-606q-27 0 -54 16zM197 821q10 10 21 20.5t61 51.5l38 29h457l43 -41q41 -42 47 -60q-8 -8 -12 -14q-18 -23 -39 -41l-53 -47h-459l-51 45q-49 47 -53 57zM242 1526l16 14q18 12 45 16h574l34 -10q35 -12 35 -28q0 -12 -69 -91l-70 -75h-406z M733 252l49 444l52 52q55 49 65 49q12 0 53 -33l37 -31l-59 -557q-2 -14 -4 -18q-10 -27 -45 -56q-14 4 -80 76zM791 944l51 391l63 76q66 74 78 74t39 -39l22 -39l-57 -508l-37 -31q-37 -31 -47 -30q-12 2 -65 55z" />
<glyph unicode="9" horiz-adv-x="1007" d="M41 930l51 497q12 39 29 58l14 14l148 -160l-43 -383l-68 -53l-74 -53q-6 4 -10 8q-10 10 -25 33zM43 68l150 155h442l143 -151l-18 -19q-20 -18 -35 -20h-606q-27 0 -53 16zM119 821q10 10 21.5 20.5t60.5 51.5l39 29h456l43 -41q41 -42 47 -60q-8 -8 -12 -14 q-18 -23 -39 -41l-53 -47h-459l-51 45q-49 47 -53 57zM164 1526l16 14q18 12 45 16h574l35 -10q35 -12 34 -28q0 -12 -69 -91l-70 -75h-405zM655 252l50 444l51 52q55 49 65 49q12 0 53 -33l37 -31l-59 -557q-2 -14 -4 -18q-10 -27 -45 -56q-14 4 -80 76zM713 944l51 391 l63 76q66 74 78 74t39 -39l23 -39l-58 -508l-37 -31q-37 -31 -47 -30q-12 2 -65 55z" />
<glyph unicode=":" horiz-adv-x="368" d="M47 434l16 205h222l-25 -205h-213zM80 991l16 205h221l-24 -205h-213z" />
<glyph unicode=";" horiz-adv-x="985" d="M41 199l63 551l27 24q29 23 41 23q14 -10 23 -19q25 -23 61 -59l37 -37l-43 -432l-154 -160q-12 6 -33 41q-6 12 -12 32.5t-10 35.5zM242 1526l16 14q18 12 45 16h574l34 -10q35 -12 35 -28q0 -12 -69 -91l-70 -75h-406z" />
<glyph unicode="&#x3c;" horiz-adv-x="907" d="M41 199l63 551l27 24q29 23 41 23q14 -10 23 -19q25 -23 61 -59l37 -37l-43 -432l-154 -160q-12 6 -33 41q-6 12 -12 32.5t-10 35.5zM121 68l149 155h443l143 -151l-18 -19q-20 -18 -35 -20h-606q-27 0 -54 16zM197 821q10 10 21 20.5t61 51.5l38 29h457l43 -41 q41 -42 47 -60q-8 -8 -12 -14q-18 -23 -39 -41l-53 -47h-459l-51 45q-49 47 -53 57z" />
<glyph unicode="=" horiz-adv-x="821" d="M43 68l150 155h442l143 -151l-18 -19q-20 -18 -35 -20h-606q-27 0 -53 16zM119 821q10 10 21.5 20.5t60.5 51.5l39 29h456l43 -41q41 -42 47 -60q-8 -8 -12 -14q-18 -23 -39 -41l-53 -47h-459l-51 45q-49 47 -53 57z" />
<glyph unicode="&#x3e;" horiz-adv-x="968" d="M43 68l150 155h442l143 -151l-18 -19q-20 -18 -35 -20h-606q-27 0 -53 16zM119 821q10 10 21.5 20.5t60.5 51.5l39 29h456l43 -41q41 -42 47 -60q-8 -8 -12 -14q-18 -23 -39 -41l-53 -47h-459l-51 45q-49 47 -53 57zM655 252l50 444l51 52q55 49 65 49q12 0 53 -33 l37 -31l-59 -557q-2 -14 -4 -18q-10 -27 -45 -56q-14 4 -80 76z" />
<glyph unicode="?" d="M41 199l63 551l27 24q29 23 41 23q14 -10 23 -19q25 -23 61 -59l37 -37l-43 -432l-154 -160q-12 6 -33 41q-6 12 -12 32.5t-10 35.5zM197 821q10 10 21 20.5t61 51.5l38 29h457l43 -41q41 -42 47 -60q-8 -8 -12 -14q-18 -23 -39 -41l-53 -47h-459l-51 45q-49 47 -53 57z M242 1526l16 14q18 12 45 16h574l34 -10q35 -12 35 -28q0 -12 -69 -91l-70 -75h-406zM791 944l51 391l63 76q66 74 78 74t39 -39l22 -39l-57 -508l-37 -31q-37 -31 -47 -30q-12 2 -65 55z" />
<glyph unicode="A" d="M47 199l64 551l26 24q29 23 41 23q14 -10 23 -19q25 -23 61 -59l37 -37l-43 -432l-154 -160q-12 6 -32 41q-6 12 -12.5 32.5t-10.5 35.5zM125 930l51 497q12 39 29 58l14 14l148 -160l-43 -383l-68 -53l-74 -53q-6 4 -10 8q-10 10 -25 33zM203 821q10 10 21.5 20.5 t60.5 51.5l39 29h456l43 -41q41 -42 47 -60q-8 -8 -12 -14q-18 -23 -39 -41l-53 -47h-459l-51 45q-49 47 -53 57zM248 1526l16 14q18 12 45 16h574l35 -10q35 -12 34 -28q0 -12 -69 -91l-70 -75h-405zM739 252l49 444l52 52q55 49 65 49q12 0 53 -33l37 -31l-59 -557 q-2 -14 -4 -18q-10 -27 -45 -56q-14 4 -80 76zM797 944l51 391l63 76q66 74 78 74t39 -39l23 -39l-58 -508l-37 -31q-36 -30 -46 -30h-1q-12 2 -65 55z" />
<glyph unicode="B" horiz-adv-x="1036" d="M41 199l63 551l27 24q29 23 41 23q14 -10 23 -19q25 -23 61 -59l37 -37l-43 -432l-154 -160q-12 6 -33 41q-6 12 -12 32.5t-10 35.5zM119 930l51 497q12 39 29 58l14 14l147 -160l-43 -383l-67 -53l-74 -53q-6 4 -10 8q-10 10 -25 33zM121 68l149 155h443l143 -151 l-18 -19q-20 -18 -35 -20h-606q-27 0 -54 16zM197 821q10 10 21 20.5t61 51.5l38 29h457l43 -41q41 -42 47 -60q-8 -8 -12 -14q-18 -23 -39 -41l-53 -47h-459l-51 45q-49 47 -53 57zM733 252l49 444l52 52q55 49 65 49q12 0 53 -33l37 -31l-59 -557q-2 -14 -4 -18 q-10 -27 -45 -56q-14 4 -80 76z" />
<glyph unicode="C" horiz-adv-x="890" d="M41 199l63 551l27 24q29 23 41 23q14 -10 23 -19q25 -23 61 -59l37 -37l-43 -432l-154 -160q-12 6 -33 41q-6 12 -12 32.5t-10 35.5zM121 68l149 155h443l143 -151l-18 -19q-20 -18 -35 -20h-606q-27 0 -54 16zM197 821q10 10 21 20.5t61 51.5l38 29h457l43 -41 q41 -42 47 -60q-8 -8 -12 -14q-18 -23 -39 -41l-53 -47h-459l-51 45q-49 47 -53 57z" />
<glyph unicode="D" d="M41 199l63 551l27 24q29 23 41 23q14 -10 23 -19q25 -23 61 -59l37 -37l-43 -432l-154 -160q-12 6 -33 41q-6 12 -12 32.5t-10 35.5zM121 68l149 155h443l143 -151l-18 -19q-20 -18 -35 -20h-606q-27 0 -54 16zM197 821q10 10 21 20.5t61 51.5l38 29h457l43 -41 q41 -42 47 -60q-8 -8 -12 -14q-18 -23 -39 -41l-53 -47h-459l-51 45q-49 47 -53 57zM733 252l49 444l52 52q55 49 65 49q12 0 53 -33l37 -31l-59 -557q-2 -14 -4 -18q-10 -27 -45 -56q-14 4 -80 76zM791 944l51 391l63 76q66 74 78 74t39 -39l22 -39l-57 -508l-37 -31 q-36 -30 -46 -30h-1q-12 2 -65 55z" />
<glyph unicode="E" horiz-adv-x="985" d="M41 199l63 551l27 24q29 23 41 23q14 -10 23 -19q25 -23 61 -59l37 -37l-43 -432l-154 -160q-12 6 -33 41q-6 12 -12 32.5t-10 35.5zM119 930l51 497q12 39 29 58l14 14l147 -160l-43 -383l-67 -53l-74 -53q-6 4 -10 8q-10 10 -25 33zM121 68l149 155h443l143 -151 l-18 -19q-20 -18 -35 -20h-606q-27 0 -54 16zM197 821q10 10 21 20.5t61 51.5l38 29h457l43 -41q41 -42 47 -60q-8 -8 -12 -14q-18 -23 -39 -41l-53 -47h-459l-51 45q-49 47 -53 57zM242 1526l16 14q18 12 45 16h574l34 -10q35 -12 35 -28q0 -12 -69 -91l-70 -75h-406z" />
<glyph unicode="F" horiz-adv-x="985" d="M41 199l63 551l27 24q29 23 41 23q14 -10 23 -19q25 -23 61 -59l37 -37l-43 -432l-154 -160q-12 6 -33 41q-6 12 -12 32.5t-10 35.5zM119 930l51 497q12 39 29 58l14 14l147 -160l-43 -383l-67 -53l-74 -53q-6 4 -10 8q-10 10 -25 33zM197 821q10 10 21 20.5t61 51.5 l38 29h457l43 -41q41 -42 47 -60q-8 -8 -12 -14q-18 -23 -39 -41l-53 -47h-459l-51 45q-49 47 -53 57zM242 1526l16 14q18 12 45 16h574l34 -10q35 -12 35 -28q0 -12 -69 -91l-70 -75h-406z" />
<glyph unicode="G" horiz-adv-x="1038" d="M41 199l63 551l27 24q29 23 41 23q14 -10 23 -19q25 -23 61 -59l37 -37l-43 -432l-154 -160q-12 6 -33 41q-6 12 -12 32.5t-10 35.5zM119 930l51 497q12 39 29 58l14 14l147 -160l-43 -383l-67 -53l-74 -53q-6 4 -10 8q-10 10 -25 33zM121 68l149 155h443l143 -151 l-18 -19q-20 -18 -35 -20h-606q-27 0 -54 16zM242 1526l16 14q18 12 45 16h574l34 -10q35 -12 35 -28q0 -12 -69 -91l-70 -75h-406zM733 252l49 444l52 52q55 49 65 49q12 0 53 -33l37 -31l-59 -557q-2 -14 -4 -18q-10 -27 -45 -56q-14 4 -80 76z" />
<glyph unicode="H" horiz-adv-x="1038" d="M55 199l64 551l26 24q29 23 41 23q14 -10 23 -19q25 -23 61 -59l37 -37l-43 -432l-153 -160q-12 6 -33 41q-6 12 -12.5 32.5t-10.5 35.5zM133 930l51 497q12 39 29 58l14 14l148 -160l-43 -383l-68 -53l-74 -53q-6 4 -10 8q-10 10 -24 33zM211 821q10 10 21.5 20.5 t60.5 51.5l39 29h456l43 -41q42 -42 48 -60q-8 -8 -13 -14q-18 -23 -39 -41l-53 -47h-459l-51 45q-49 47 -53 57zM748 252l49 444l51 52q55 49 65 49q12 0 54 -33l37 -31l-60 -557q-2 -14 -4 -18q-10 -27 -45 -56q-14 4 -80 76z" />
<glyph unicode="I" horiz-adv-x="411" d="M51 252l49 444l52 52q55 49 65 49q12 0 53 -33l37 -31l-59 -557q-2 -14 -4 -18q-10 -27 -45 -56q-14 4 -80 76zM109 944l51 391l63 76q66 74 78 74t39 -39l22 -39l-57 -508l-37 -31q-36 -30 -46 -30h-1q-12 2 -65 55z" />
<glyph unicode="J" horiz-adv-x="1021" d="M51 68l150 155h442l143 -151l-18 -19q-20 -18 -35 -20h-606q-27 0 -53 16zM664 252l49 444l51 52q55 49 65 49q12 0 54 -33l37 -31l-60 -557q-2 -14 -4 -18q-10 -27 -45 -56q-14 4 -80 76zM721 944l51 391l64 76q66 74 77 74q12 0 39 -39l23 -39l-57 -508l-37 -31 q-36 -30 -46 -30h-1q-12 2 -66 55z" />
<glyph unicode="K" d="M41 199l63 551l27 24q29 23 41 23q14 -10 23 -19q25 -23 61 -59l37 -37l-43 -432l-154 -160q-12 6 -33 41q-6 12 -12 32.5t-10 35.5zM119 930l51 497q12 39 29 58l14 14l147 -160l-43 -383l-67 -53l-74 -53q-6 4 -10 8q-10 10 -25 33zM197 821q10 10 21 20.5t61 51.5 l38 29h457l43 -41q41 -42 47 -60q-8 -8 -12 -14q-18 -23 -39 -41l-53 -47h-459l-51 45q-49 47 -53 57zM733 252l49 444l52 52q55 49 65 49q12 0 53 -33l37 -31l-59 -557q-2 -14 -4 -18q-10 -27 -45 -56q-14 4 -80 76zM791 944l51 391l63 76q66 74 78 74t39 -39l22 -39 l-57 -508l-37 -31q-36 -30 -46 -30h-1q-12 2 -65 55z" />
<glyph unicode="L" horiz-adv-x="897" d="M41 199l63 551l27 24q29 23 41 23q14 -10 23 -19q25 -23 61 -59l37 -37l-43 -432l-154 -160q-12 6 -33 41q-6 12 -12 32.5t-10 35.5zM119 930l51 497q12 39 29 58l14 14l147 -160l-43 -383l-67 -53l-74 -53q-6 4 -10 8q-10 10 -25 33zM121 68l149 155h443l143 -151 l-18 -19q-20 -18 -35 -20h-606q-27 0 -54 16z" />
<glyph unicode="M" horiz-adv-x="1077" d="M41 199l63 551l27 24q29 23 41 23q14 -10 23 -19q25 -23 61 -59l37 -37l-43 -432l-154 -160q-12 6 -33 41q-6 12 -12 32.5t-10 35.5zM119 930l51 497q12 39 29 58l14 14l147 -160l-43 -383l-67 -53l-74 -53q-6 4 -10 8q-10 10 -25 33zM242 1526l16 14q18 12 45 16h574 l34 -10q35 -12 35 -28q0 -12 -69 -91l-70 -75h-406zM791 944l51 391l63 76q66 74 78 74t39 -39l22 -39l-57 -508l-37 -31q-36 -30 -46 -30h-1q-12 2 -65 55z" />
<glyph unicode="N" horiz-adv-x="1030" d="M41 199l63 551l27 24q29 23 41 23q14 -10 23 -19q25 -23 61 -59l37 -37l-43 -432l-154 -160q-12 6 -33 41q-6 12 -12 32.5t-10 35.5zM197 821q10 10 21 20.5t61 51.5l38 29h457l43 -41q41 -42 47 -60q-8 -8 -12 -14q-18 -23 -39 -41l-53 -47h-459l-51 45q-49 47 -53 57z M733 252l49 444l52 52q55 49 65 49q12 0 53 -33l37 -31l-59 -557q-2 -14 -4 -18q-10 -27 -45 -56q-14 4 -80 76z" />
<glyph unicode="O" horiz-adv-x="1038" d="M41 199l63 551l27 24q29 23 41 23q14 -10 23 -19q25 -23 61 -59l37 -37l-43 -432l-154 -160q-12 6 -33 41q-6 12 -12 32.5t-10 35.5zM121 68l149 155h443l143 -151l-18 -19q-20 -18 -35 -20h-606q-27 0 -54 16zM197 821q10 10 21 20.5t61 51.5l38 29h457l43 -41 q41 -42 47 -60q-8 -8 -12 -14q-18 -23 -39 -41l-53 -47h-459l-51 45q-49 47 -53 57zM733 252l49 444l52 52q55 49 65 49q12 0 53 -33l37 -31l-59 -557q-2 -14 -4 -18q-10 -27 -45 -56q-14 4 -80 76z" />
<glyph unicode="P" horiz-adv-x="1095" d="M55 199l64 551l26 24q29 23 41 23q14 -10 23 -19q25 -23 61 -59l37 -37l-43 -432l-153 -160q-12 6 -33 41q-6 12 -12.5 32.5t-10.5 35.5zM133 930l51 497q12 39 29 58l14 14l148 -160l-43 -383l-68 -53l-74 -53q-6 4 -10 8q-10 10 -24 33zM211 821q10 10 21.5 20.5 t60.5 51.5l39 29h456l43 -41q42 -42 48 -60q-8 -8 -13 -14q-18 -23 -39 -41l-53 -47h-459l-51 45q-49 47 -53 57zM256 1526l16 14q18 12 45 16h574l35 -10q35 -12 35 -28q0 -12 -70 -91l-70 -75h-405zM805 944l51 391l64 76q66 74 77 74q12 0 39 -39l23 -39l-58 -508 l-36 -31q-36 -30 -46 -30h-1q-12 2 -66 55z" />
<glyph unicode="Q" horiz-adv-x="1030" d="M55 930l51 497q12 39 29 58l15 14l147 -160l-43 -383l-68 -53l-73 -53q-6 4 -11 8q-10 10 -24 33zM133 821q10 10 21.5 20.5t60.5 51.5l39 29h457l43 -41q41 -42 47 -60q-8 -8 -13 -14q-18 -23 -38 -41l-54 -47h-458l-52 45q-49 47 -53 57zM178 1526l17 14q18 12 45 16 h573l35 -10q35 -12 35 -28q0 -12 -70 -91l-70 -75h-405zM670 252l49 444l51 52q55 49 66 49q12 0 53 -33l37 -31l-60 -557q-2 -14 -4 -18q-10 -27 -45 -56q-14 4 -80 76zM727 944l51 391l64 76q66 74 78 74t38 -39l23 -39l-57 -508l-37 -31q-36 -30 -46 -30h-1q-12 2 -66 55 z" />
<glyph unicode="R" horiz-adv-x="899" d="M41 199l63 551l27 24q29 23 41 23q14 -10 23 -19q25 -23 61 -59l37 -37l-43 -432l-154 -160q-12 6 -33 41q-6 12 -12 32.5t-10 35.5zM197 821q10 10 21 20.5t61 51.5l38 29h457l43 -41q41 -42 47 -60q-8 -8 -12 -14q-18 -23 -39 -41l-53 -47h-459l-51 45q-49 47 -53 57z " />
<glyph unicode="S" horiz-adv-x="960" d="M41 930l51 497q12 39 29 58l14 14l148 -160l-43 -383l-68 -53l-74 -53q-6 4 -10 8q-10 10 -25 33zM43 68l150 155h442l143 -151l-18 -19q-20 -18 -35 -20h-606q-27 0 -53 16zM119 821q10 10 21.5 20.5t60.5 51.5l39 29h456l43 -41q41 -42 47 -60q-8 -8 -12 -14 q-18 -23 -39 -41l-53 -47h-459l-51 45q-49 47 -53 57zM164 1526l16 14q18 12 45 16h574l35 -10q35 -12 34 -28q0 -12 -69 -91l-70 -75h-405zM655 252l50 444l51 52q55 49 65 49q12 0 53 -33l37 -31l-59 -557q-2 -14 -4 -18q-10 -27 -45 -56q-14 4 -80 76z" />
<glyph unicode="T" horiz-adv-x="907" d="M41 199l63 551l27 24q29 23 41 23q14 -10 23 -19q25 -23 61 -59l37 -37l-43 -432l-154 -160q-12 6 -33 41q-6 12 -12 32.5t-10 35.5zM119 930l51 497q12 39 29 58l14 14l147 -160l-43 -383l-67 -53l-74 -53q-6 4 -10 8q-10 10 -25 33zM121 68l149 155h443l143 -151 l-18 -19q-20 -18 -35 -20h-606q-27 0 -54 16zM197 821q10 10 21 20.5t61 51.5l38 29h457l43 -41q41 -42 47 -60q-8 -8 -12 -14q-18 -23 -39 -41l-53 -47h-459l-51 45q-49 47 -53 57z" />
<glyph unicode="U" d="M41 199l63 551l27 24q29 23 41 23q14 -10 23 -19q25 -23 61 -59l37 -37l-43 -432l-154 -160q-12 6 -33 41q-6 12 -12 32.5t-10 35.5zM119 930l51 497q12 39 29 58l14 14l147 -160l-43 -383l-67 -53l-74 -53q-6 4 -10 8q-10 10 -25 33zM121 68l149 155h443l143 -151 l-18 -19q-20 -18 -35 -20h-606q-27 0 -54 16zM733 252l49 444l52 52q55 49 65 49q12 0 53 -33l37 -31l-59 -557q-2 -14 -4 -18q-10 -27 -45 -56q-14 4 -80 76zM791 944l51 391l63 76q66 74 78 74t39 -39l22 -39l-57 -508l-37 -31q-36 -30 -46 -30h-1q-12 2 -65 55z" />
<glyph unicode="V" horiz-adv-x="1030" d="M41 199l63 551l27 24q29 23 41 23q14 -10 23 -19q25 -23 61 -59l37 -37l-43 -432l-154 -160q-12 6 -33 41q-6 12 -12 32.5t-10 35.5zM121 68l149 155h443l143 -151l-18 -19q-20 -18 -35 -20h-606q-27 0 -54 16zM733 252l49 444l52 52q55 49 65 49q12 0 53 -33l37 -31 l-59 -557q-2 -14 -4 -18q-10 -27 -45 -56q-14 4 -80 76z" />
<glyph unicode="W" horiz-adv-x="1038" d="M41 199l63 551l27 24q29 23 41 23q14 -10 23 -19q25 -23 61 -59l37 -37l-43 -432l-154 -160q-12 6 -33 41q-6 12 -12 32.5t-10 35.5zM119 930l51 497q12 39 29 58l14 14l147 -160l-43 -383l-67 -53l-74 -53q-6 4 -10 8q-10 10 -25 33zM121 68l149 155h443l143 -151 l-18 -19q-20 -18 -35 -20h-606q-27 0 -54 16zM733 252l49 444l52 52q55 49 65 49q12 0 53 -33l37 -31l-59 -557q-2 -14 -4 -18q-10 -27 -45 -56q-14 4 -80 76z" />
<glyph unicode="X" horiz-adv-x="1093" d="M41 199l63 551l27 24q29 23 41 23q14 -10 23 -19q25 -23 61 -59l37 -37l-43 -432l-154 -160q-12 6 -33 41q-6 12 -12 32.5t-10 35.5zM119 930l51 497q12 39 29 58l14 14l147 -160l-43 -383l-67 -53l-74 -53q-6 4 -10 8q-10 10 -25 33zM197 821q10 10 21 20.5t61 51.5 l38 29h457l43 -41q41 -42 47 -60q-8 -8 -12 -14q-18 -23 -39 -41l-53 -47h-459l-51 45q-49 47 -53 57zM733 252l49 444l52 52q55 49 65 49q12 0 53 -33l37 -31l-59 -557q-2 -14 -4 -18q-10 -27 -45 -56q-14 4 -80 76zM791 944l51 391l63 76q66 74 78 74t39 -39l22 -39 l-57 -508l-37 -31q-36 -30 -46 -30h-1q-12 2 -65 55z" />
<glyph unicode="Y" horiz-adv-x="1007" d="M41 930l51 497q12 39 29 58l14 14l148 -160l-43 -383l-68 -53l-74 -53q-6 4 -10 8q-10 10 -25 33zM43 68l150 155h442l143 -151l-18 -19q-20 -18 -35 -20h-606q-27 0 -53 16zM119 821q10 10 21.5 20.5t60.5 51.5l39 29h456l43 -41q41 -42 47 -60q-8 -8 -12 -14 q-18 -23 -39 -41l-53 -47h-459l-51 45q-49 47 -53 57zM655 252l50 444l51 52q55 49 65 49q12 0 53 -33l37 -31l-59 -557q-2 -14 -4 -18q-10 -27 -45 -56q-14 4 -80 76zM713 944l51 391l63 76q66 74 78 74t39 -39l23 -39l-58 -508l-37 -31q-36 -30 -46 -30h-1q-12 2 -65 55z " />
<glyph unicode="Z" horiz-adv-x="1099" d="M41 199l63 551l27 24q29 23 41 23q14 -10 23 -19q25 -23 61 -59l37 -37l-43 -432l-154 -160q-12 6 -33 41q-6 12 -12 32.5t-10 35.5zM121 68l149 155h443l143 -151l-18 -19q-20 -18 -35 -20h-606q-27 0 -54 16zM197 821q10 10 21 20.5t61 51.5l38 29h457l43 -41 q41 -42 47 -60q-8 -8 -12 -14q-18 -23 -39 -41l-53 -47h-459l-51 45q-49 47 -53 57zM242 1526l16 14q18 12 45 16h574l34 -10q35 -12 35 -28q0 -12 -69 -91l-70 -75h-406zM791 944l51 391l63 76q66 74 78 74t39 -39l22 -39l-57 -508l-37 -31q-36 -30 -46 -30h-1 q-12 2 -65 55z" />
<glyph unicode="[" horiz-adv-x="991" d="M41 199l63 551l27 24q29 23 41 23q14 -10 23 -19q25 -23 61 -59l37 -37l-43 -432l-154 -160q-12 6 -33 41q-6 12 -12 32.5t-10 35.5zM119 930l51 497q12 39 29 58l14 14l147 -160l-43 -383l-67 -53l-74 -53q-6 4 -10 8q-10 10 -25 33zM121 68l149 155h443l143 -151 l-18 -19q-20 -18 -35 -20h-606q-27 0 -54 16zM242 1526l16 14q18 12 45 16h574l34 -10q35 -12 35 -28q0 -12 -69 -91l-70 -75h-406z" />
<glyph unicode="\" horiz-adv-x="954" d="M41 930l51 497q12 39 29 58l14 14l148 -160l-43 -383l-68 -53l-74 -53q-6 4 -10 8q-10 10 -25 33zM119 821q10 10 21.5 20.5t60.5 51.5l39 29h456l43 -41q41 -42 47 -60q-8 -8 -12 -14q-18 -23 -39 -41l-53 -47h-459l-51 45q-49 47 -53 57zM655 252l50 444l51 52 q55 49 65 49q12 0 53 -33l37 -31l-59 -557q-2 -14 -4 -18q-10 -27 -45 -56q-14 4 -80 76z" />
<glyph unicode="]" horiz-adv-x="1007" d="M43 68l150 155h442l143 -151l-18 -19q-20 -18 -35 -20h-606q-27 0 -53 16zM164 1526l16 14q18 12 45 16h574l35 -10q35 -12 34 -28q0 -12 -69 -91l-70 -75h-405zM655 252l50 444l51 52q55 49 65 49q12 0 53 -33l37 -31l-59 -557q-2 -14 -4 -18q-10 -27 -45 -56 q-14 4 -80 76zM713 944l51 391l63 76q66 74 78 74t39 -39l23 -39l-58 -508l-37 -31q-37 -31 -47 -30q-12 2 -65 55z" />
<glyph unicode="&#xad;" horiz-adv-x="751" d="M43 821q10 10 21.5 20.5t60.5 51.5l39 29h457l43 -41q41 -42 47 -60q-8 -8 -13 -14q-18 -23 -39 -41l-53 -47h-459l-51 45q-49 47 -53 57z" />
<glyph unicode="&#xff;" horiz-adv-x="614" d="M102 1296l19 236q0 12 18 16q20 0 23 -22l-19 -205l62 6q20 2 22 -18q0 -19 -18 -19l-86 -12q-16 0 -21 18zM250 1485q0 18 20 18q18 0 19 -18l8 -99l74 224q0 10 18 14q25 0 21 -25l-107 -323q-6 -18 -24 -23q-12 0 -17 19zM362 1241q12 43 55.5 79t55.5 64l4 25 q0 12 -8 14l-23 4q-14 0 -22 -4q-4 -10 -4 -14q6 -10 0 -18.5t-21 -12.5q-10 0 -16 11l-2 16q0 25 25.5 42t54.5 17q20 0 37.5 -13t19.5 -42l-6 -35q-6 -29 -45 -61.5t-53 -55.5l30 -2h31q23 0 29 7q12 14 28 0q15 -11 3 -29q-14 -10 -46 -14l-57 2l-47 -4q-12 -4 -18.5 1 t-4.5 23z" />
<glyph unicode="&#x2000;" horiz-adv-x="812" />
<glyph unicode="&#x2001;" horiz-adv-x="1624" />
<glyph unicode="&#x2002;" horiz-adv-x="812" />
<glyph unicode="&#x2003;" horiz-adv-x="1624" />
<glyph unicode="&#x2004;" horiz-adv-x="541" />
<glyph unicode="&#x2005;" horiz-adv-x="406" />
<glyph unicode="&#x2006;" horiz-adv-x="270" />
<glyph unicode="&#x2007;" horiz-adv-x="270" />
<glyph unicode="&#x2008;" horiz-adv-x="203" />
<glyph unicode="&#x2009;" horiz-adv-x="324" />
<glyph unicode="&#x200a;" horiz-adv-x="90" />
<glyph unicode="&#x2010;" horiz-adv-x="751" d="M43 821q10 10 21.5 20.5t60.5 51.5l39 29h457l43 -41q41 -42 47 -60q-8 -8 -13 -14q-18 -23 -39 -41l-53 -47h-459l-51 45q-49 47 -53 57z" />
<glyph unicode="&#x2011;" horiz-adv-x="751" d="M43 821q10 10 21.5 20.5t60.5 51.5l39 29h457l43 -41q41 -42 47 -60q-8 -8 -13 -14q-18 -23 -39 -41l-53 -47h-459l-51 45q-49 47 -53 57z" />
<glyph unicode="&#x2012;" horiz-adv-x="751" d="M43 821q10 10 21.5 20.5t60.5 51.5l39 29h457l43 -41q41 -42 47 -60q-8 -8 -13 -14q-18 -23 -39 -41l-53 -47h-459l-51 45q-49 47 -53 57z" />
<glyph unicode="&#x2013;" horiz-adv-x="1107" d="M43 821q15 10 33 20.5t93 51.5l59 29h701l66 -41q63 -42 72 -60q-12 -8 -20 -14q-28 -23 -60 -41l-81 -47h-704l-78 45q-75 47 -81 57z" />
<glyph unicode="&#x2014;" horiz-adv-x="2131" d="M43 821q31 10 66 20.5t185 51.5l120 29h1401l132 -41q126 -42 144 -60q-25 -8 -40 -14q-55 -23 -119 -41l-163 -47h-1407l-157 45q-150 47 -162 57z" />
<glyph unicode="&#x202f;" horiz-adv-x="324" />
<glyph unicode="&#x205f;" horiz-adv-x="406" />
<glyph unicode="&#x25fc;" horiz-adv-x="1024" d="M0 0z" />
</font>
</defs>
</svg>
