<?xml version="1.0" encoding="UTF-8" standalone="no"?>
<!-- Created with Inkscape (http://www.inkscape.org/) -->

<svg
   xmlns:dc="http://purl.org/dc/elements/1.1/"
   xmlns:cc="http://creativecommons.org/ns#"
   xmlns:rdf="http://www.w3.org/1999/02/22-rdf-syntax-ns#"
   xmlns:svg="http://www.w3.org/2000/svg"
   xmlns="http://www.w3.org/2000/svg"
   xmlns:sodipodi="http://sodipodi.sourceforge.net/DTD/sodipodi-0.dtd"
   xmlns:inkscape="http://www.inkscape.org/namespaces/inkscape"
   id="svg3858"
   version="1.1"
   inkscape:version="0.48.5 r10040"
   width="190"
   height="40"
   sodipodi:docname="agree_logo.svg">
  <metadata
     id="metadata3864">
    <rdf:RDF>
      <cc:Work
         rdf:about="">
        <dc:format>image/svg+xml</dc:format>
        <dc:type
           rdf:resource="http://purl.org/dc/dcmitype/StillImage" />
        <dc:title></dc:title>
      </cc:Work>
    </rdf:RDF>
  </metadata>
  <defs
     id="defs3862" />
  <sodipodi:namedview
     pagecolor="#ffffff"
     bordercolor="#666666"
     borderopacity="1"
     objecttolerance="10"
     gridtolerance="10"
     guidetolerance="10"
     inkscape:pageopacity="0"
     inkscape:pageshadow="2"
     inkscape:window-width="1920"
     inkscape:window-height="1006"
     id="namedview3860"
     showgrid="false"
     showguides="true"
     inkscape:guide-bbox="true"
     inkscape:zoom="6.3"
     inkscape:cx="45.406848"
     inkscape:cy="34.726134"
     inkscape:window-x="-9"
     inkscape:window-y="-9"
     inkscape:window-maximized="1"
     inkscape:current-layer="svg3858"
     borderlayer="true" />
  <path
     style="fill:#05c697;fill-opacity:1"
     d="m 41.136866,2.412356 c -0.05737,0.062897 -4.474992,5.3265839 -9.815261,11.695202 -11.336036,13.518951 -10.941892,13.053853 -11.347481,13.329196 -0.306348,0.207967 -0.339544,0.21106 -1.170368,0.113075 -1.734173,-0.204527 -4.969734,-0.08731 -6.1515,0.220495 -1.527996,0.39799 -2.557929,0.99014 -3.6750694,2.114581 -0.6969508,0.701508 -0.9434103,1.02456 -1.2806205,1.682058 -0.2296578,0.447789 -0.5079998,1.113812 -0.6191077,1.481333 -0.6400924,2.117277 0.6611065,4.861911 2.8071873,5.919687 l 0.5851843,0.288354 2.354871,-0.0026 c 2.021039,-0.0016 2.39038,-0.02366 2.623434,-0.152669 1.801743,-0.997048 9.843983,-10.301425 21.600924,-24.993273 2.030594,-2.537498 3.722016,-4.6227623 3.757051,-4.6334183 0.0611,-0.01854 17.374007,28.0666123 17.487674,28.3687083 0.144725,0.384632 0.465861,0.373161 -10.49939,0.373161 -10.055429,0 -10.498043,-0.007 -11.155247,-0.175279 -1.151317,-0.294454 -2.341343,-0.988935 -3.593086,-2.091961 -1.00134,-0.882366 -2.083482,-2.184678 -2.083482,-2.510356 0,-0.16659 0.170534,-0.459528 0.520164,-0.893317 1.321173,-1.6392 8.743268,-10.426462 8.777761,-10.391964 0.02136,0.0214 2.12822,3.39053 4.681472,7.485827 l 4.641895,7.446259 2.518835,-0.03396 c 1.384492,-0.01793 2.547596,-0.06004 2.586684,-0.09611 0.068,-0.06272 -13.896704,-21.834356 -14.027457,-21.869487 -0.09111,-0.02452 -20.509709,23.385831 -20.509709,23.514786 0,0.186716 0.695085,0.505626 1.334333,0.613444 1.511709,0.255001 2.705404,-0.179949 5.280791,-1.925163 0.843603,-0.571669 1.618512,-1.066969 1.721627,-1.09969 0.142624,-0.04531 0.380308,0.088 0.992269,0.55409 2.419882,1.843042 3.925842,2.59958 5.809435,2.917434 0.493509,0.08326 27.786349,0.119383 27.786349,0.03674 0,-0.03067 -4.91236,-8.456595 -10.917782,-18.725893 C 43.695654,6.4988582 41.217714,2.3239019 41.136866,2.4125292 z M 13.992243,29.845339 c 0.892647,0.0086 1.893892,0.09622 2.948536,0.260078 l 0.678473,0.104594 -0.02827,0.271392 c -0.03537,0.340354 -0.152664,0.504855 -1.549183,2.168296 -1.396212,1.663067 -3.734326,4.032148 -4.181097,4.237628 -0.396491,0.182357 -1.538219,0.198013 -2.1682923,0.02824 C 8.9468666,36.714724 8.2382881,35.936397 7.942514,34.996055 7.7385448,34.347576 7.8402992,33.613017 8.2647893,32.692071 c 0.4812223,-1.044026 1.6334404,-2.020912 2.9428837,-2.496216 0.669823,-0.243141 1.636881,-0.361223 2.784571,-0.350542 z"
     id="path3868"
     inkscape:connector-curvature="0"
     sodipodi:nodetypes="ssssssssccccsssssssscccccsssscsssssscccsssssss" />
  <path
     style="fill:#222222;fill-opacity:1"
     d="m 77.148142,39.562592 c -1.70991,-0.479473 -2.644504,-1.909354 -2.510639,-3.841144 0.149197,-2.153092 1.422263,-3.383331 3.503541,-3.385696 0.913012,-8.66e-4 1.370787,0.119702 1.951583,0.514714 0.425887,0.289655 0.865083,0.926195 0.989258,1.433762 0.05363,0.219195 0.02817,0.243817 -0.350777,0.339236 -0.557717,0.140436 -0.548949,0.143199 -0.678029,-0.213772 -0.279396,-0.772652 -0.909259,-1.146723 -1.930865,-1.146723 -1.428708,0 -2.280836,0.855518 -2.397926,2.407469 -0.104264,1.381962 0.320429,2.296324 1.287763,2.772538 0.525457,0.258681 0.637244,0.280445 1.282023,0.249567 0.560872,-0.02686 0.833014,-0.09352 1.321194,-0.323649 l 0.614825,-0.289828 -0.02681,-0.613417 -0.02681,-0.613419 -1.017711,-0.02556 -1.017712,-0.02555 0,-0.449358 0,-0.449356 1.540232,0 1.540231,0 -0.02497,1.378775 -0.02497,1.378775 -0.495626,0.296039 c -0.272594,0.162822 -0.720388,0.381436 -0.995096,0.485814 -0.662557,0.251743 -1.861785,0.308957 -2.5327,0.120821 z m 48.830848,0.01135 c -1.49676,-0.430341 -2.32714,-1.88882 -2.21915,-3.897735 0.0605,-1.127057 0.31121,-1.753176 0.96255,-2.404513 0.82853,-0.828533 2.02101,-1.154504 3.15795,-0.863238 0.95383,0.244362 1.57472,0.785136 1.95624,1.703829 l 0.13948,0.335814 -0.38425,0.09927 c -0.21134,0.05458 -0.44573,0.116844 -0.52086,0.13832 -0.0927,0.02651 -0.20275,-0.105183 -0.34289,-0.410658 -0.36715,-0.80033 -1.10655,-1.144887 -2.11486,-0.985495 -0.68225,0.107851 -1.1464,0.459987 -1.4765,1.120178 -0.25451,0.509024 -0.27135,0.607485 -0.27076,1.583104 8.7e-4,0.89213 0.0302,1.104602 0.20796,1.491522 0.25404,0.552808 0.49576,0.820051 0.96743,1.069524 0.51149,0.270534 1.39864,0.264539 1.92702,-0.013 0.41117,-0.215988 0.86709,-0.822961 0.96996,-1.291291 0.066,-0.301065 0.039,-0.295113 0.6311,-0.138512 0.5326,0.140869 0.54766,0.234391 0.16393,1.01808 -0.28395,0.57989 -0.78512,1.064256 -1.37411,1.328024 -0.52268,0.234071 -1.76102,0.294836 -2.38024,0.116794 z m 21.3582,-0.03778 c -1.00312,-0.332668 -1.69016,-0.990087 -2.09129,-2.001151 -0.16454,-0.414728 -0.19911,-0.682517 -0.19911,-1.542203 0,-1.157188 0.15386,-1.711799 0.66939,-2.412813 1.09808,-1.493134 3.54868,-1.703231 4.96925,-0.426018 1.4565,1.309528 1.52499,4.195341 0.1326,5.587727 -0.82494,0.824937 -2.34368,1.171571 -3.48084,0.794458 z m 1.74869,-0.863063 c 0.62573,-0.18831 1.02593,-0.54554 1.35106,-1.205922 0.2629,-0.53407 0.28779,-0.658858 0.28198,-1.414521 -0.0136,-1.779124 -0.8675,-2.80073 -2.33168,-2.789727 -0.95512,0.007 -1.66888,0.462197 -2.04617,1.304425 -0.18183,0.405849 -0.21317,0.621518 -0.2138,1.470687 -8.7e-4,0.869059 0.0261,1.046661 0.21158,1.402183 0.5828,1.117442 1.60549,1.576424 2.74703,1.232875 z m 11.60288,0.94994 c -1.01761,-0.269043 -1.72028,-0.845737 -2.19122,-1.798364 -0.33576,-0.679208 -0.34175,-0.709686 -0.34175,-1.736534 0,-1.166953 0.0862,-1.543935 0.51765,-2.263308 0.58076,-0.968376 1.57517,-1.493116 2.82949,-1.493116 1.59779,0 2.70225,0.794295 3.21431,2.31165 0.16573,0.491099 0.18987,0.726807 0.1568,1.530369 -0.0479,1.162259 -0.2654,1.786366 -0.8489,2.435365 -0.60331,0.67103 -1.35341,1.012701 -2.31307,1.053626 -0.41356,0.01768 -0.87405,-1.74e-4 -1.02331,-0.03968 z m 1.77647,-1.054405 c 0.90171,-0.454278 1.34452,-1.285418 1.34452,-2.523593 0,-1.756747 -0.84201,-2.777433 -2.29121,-2.777433 -0.67944,0 -1.071,0.142592 -1.55254,0.565387 -0.49713,0.436466 -0.69851,0.956942 -0.74981,1.937907 -0.0839,1.605421 0.51964,2.625406 1.74396,2.946865 0.3936,0.103355 1.15333,0.02807 1.50508,-0.149133 z m 5.88848,0.998709 c -0.89361,-0.251441 -1.4913,-0.643844 -1.91201,-1.255322 -1.07876,-1.567924 -0.75453,-4.294972 0.62988,-5.297837 0.66872,-0.484419 1.29291,-0.66967 2.25641,-0.66967 1.46955,0 2.39452,0.538254 2.80353,1.631393 0.10346,0.276547 0.17651,0.511345 0.16233,0.521768 -0.0722,0.0531 -0.89434,0.248675 -0.91838,0.218518 -0.0154,-0.01932 -0.12095,-0.231151 -0.23453,-0.470766 -0.35765,-0.754459 -1.22602,-1.122734 -2.26145,-0.959054 -0.93881,0.148405 -1.46819,0.586674 -1.81228,1.500385 -0.16727,0.444141 -0.19288,0.663491 -0.16204,1.386978 0.0439,1.030002 0.31008,1.653824 0.88257,2.068536 0.77518,0.561532 1.99268,0.621865 2.94554,0.145963 l 0.53967,-0.269539 0.0266,-0.65586 0.0266,-0.655851 -0.99905,0 -0.99906,0 0,-0.45232 0,-0.452321 1.53787,0 1.53788,0 0,1.347517 0,1.347527 -0.45688,0.293172 c -1.12338,0.72087 -2.50892,0.981842 -3.59315,0.676783 z M 67.630921,39.18165 c 0.09008,-0.23634 0.7063,-1.844325 1.369353,-3.573304 l 1.205551,-3.143596 0.562678,0 0.562675,0 1.340351,3.279292 c 0.737196,1.803615 1.395519,3.413488 1.462944,3.577497 l 0.12259,0.298206 -0.611785,-0.02686 -0.611786,-0.02686 -0.408352,-1.062947 -0.408349,-1.062941 -1.417011,0 -1.41701,0 -0.392799,1.08537 -0.392797,1.085368 -0.565027,1.83e-4 -0.565027,1.81e-4 0.163801,-0.429699 z m 3.690177,-4.130851 c -0.487772,-1.310118 -0.562131,-1.456452 -0.632062,-1.243867 -0.08255,0.250963 -0.813522,2.293967 -0.919644,2.570349 -0.0558,0.145347 0.02792,0.158316 1.021863,0.158316 l 1.082649,0 -0.552806,-1.484798 z m 11.162182,0.987247 0,-3.573296 2.058038,5.47e-4 c 1.156882,2.69e-4 2.207664,0.04202 2.399748,0.0954 0.744881,0.206858 1.254366,0.956059 1.254273,1.84442 -9e-5,0.963449 -0.489912,1.555787 -1.562615,1.88973 -0.115484,0.03596 -0.04665,0.150944 0.316621,0.528957 0.38865,0.40442 1.866362,2.576614 1.866362,2.743499 0,0.02859 -0.292731,0.04003 -0.650511,0.02546 l -0.650511,-0.0266 -0.656514,-1.035017 C 85.660264,36.642603 85.413432,36.44518 84.250218,36.44518 l -0.681379,0 0,1.583102 0,1.583113 -0.54278,0 -0.542779,0 0,-3.573305 z m 3.754224,-0.585366 c 0.985641,-0.22745 1.191067,-1.495411 0.315623,-1.948122 -0.197945,-0.102358 -0.591925,-0.135176 -1.622848,-0.135176 l -1.36144,0 0,1.08556 0,1.08556 1.153406,-0.0016 c 0.634373,-8.66e-4 1.316239,-0.03977 1.515259,-0.08568 z m 3.362216,4.098355 c -0.03317,-0.03318 -0.06031,-1.641149 -0.06031,-3.573296 l 0,-3.512989 2.623429,0 2.62344,0 0,0.452321 0,0.452311 -2.083619,0 -2.083616,0 0.02557,1.017716 0.02557,1.017708 1.922337,0.02444 1.922347,0.02444 0,0.450519 0,0.450519 -1.944958,0 -1.944958,0 0,1.13079 0,1.130793 2.171117,0 2.171111,0 0,0.497543 0,0.497553 -2.65358,0 c -1.459475,0 -2.680728,-0.02712 -2.713897,-0.0603 z m 6.54351,-3.512989 0,-3.573296 2.623429,0 2.623441,0 0,0.452321 0,0.452311 -2.080651,0 -2.080654,0 0,1.040329 0,1.040327 1.944954,0 1.944971,0 0,0.452312 0,0.45232 -1.944971,0 -1.944954,0 0,1.130792 0,1.130791 2.125884,0 2.125891,0 0,0.497545 0,0.497551 -2.668681,0 -2.668659,0 0,-3.573303 z m 17.09756,0.45232 0,-3.120984 -1.17602,0 -1.17602,0 0,-0.452311 0,-0.452321 2.84958,0 2.8496,0 0,0.452321 0,0.452311 -1.17602,0 -1.17602,0 0,3.120984 0,3.120983 -0.49756,0 -0.49754,0 0,-3.120983 z m 4.22161,3.060669 c -0.0332,-0.03318 -0.0603,-1.641149 -0.0603,-3.573296 l 0,-3.512989 2.62342,0 2.62343,0 0,0.452321 0,0.452311 -2.08361,0 -2.08361,0 0.0255,1.017716 0.0255,1.017708 1.92234,0.02444 1.92235,0.02444 0,0.450519 0,0.450519 -1.94496,0 -1.94496,0 0,1.13079 0,1.130793 2.17111,0 2.17112,0 0,0.497543 0,0.497553 -2.65358,0 c -1.45949,0 -2.68074,-0.02712 -2.71391,-0.0603 z m 13.65996,0 c -0.0332,-0.03318 -0.0603,-1.641149 -0.0603,-3.573296 l 0,-3.512989 0.54278,0 0.54277,0 0,1.402185 0,1.402174 1.76404,0 1.76404,0 0,-1.402174 0,-1.402185 0.54277,0 0.54279,0 0,3.573296 0,3.573303 -0.54279,0 -0.54277,0 0,-1.673576 0,-1.673567 -1.76404,0 -1.76404,0 0,1.673567 0,1.673576 -0.48245,0 c -0.26538,0 -0.50963,-0.02712 -0.54279,-0.0603 z m 7.08628,-3.512989 0,-3.573296 0.52052,0 0.52054,0 1.76367,2.631047 1.76367,2.631055 0.024,-2.631055 0.024,-2.631047 0.49617,0 0.49617,0 0,3.573296 0,3.573303 -0.52015,-0.0026 -0.52017,-0.0026 -1.78646,-2.688883 -1.78646,-2.688893 0,2.691284 0,2.691283 -0.49755,0 -0.49756,0 0,-3.573303 z m 14.65504,0 0,-3.573296 0.54279,0 0.54277,0 0,3.075752 0,3.075751 1.71881,0 1.7188,0 0,0.497545 0,0.497551 -2.26158,0 -2.26159,0 0,-3.573303 z m 22.76658,3.512989 c -0.0332,-0.03318 -0.0603,-0.73553 -0.0603,-1.560813 l 0,-1.500505 -1.31172,-1.966315 c -0.72144,-1.081481 -1.31171,-1.987091 -1.31171,-2.012484 0,-0.02539 0.27477,-0.04583 0.61062,-0.04548 l 0.61063,6.33e-4 0.88018,1.347993 c 0.4841,0.741395 0.92825,1.453489 0.987,1.582429 0.12817,0.28132 0.20382,0.29448 0.31273,0.0544 0.045,-0.09901 0.48875,-0.809116 0.98631,-1.578018 l 0.90463,-1.397999 0.61063,-0.0051 c 0.33583,-0.0026 0.61063,0.01239 0.61063,0.0337 0,0.0214 -0.63047,0.947473 -1.40103,2.058044 l -1.40103,2.019214 -8.7e-4,1.51526 -8.6e-4,1.515259 -0.48247,0 c -0.26536,0 -0.5096,-0.02711 -0.54277,-0.0603 z M 68.230024,27.281945 c -0.02467,-0.06428 -0.03357,-0.746141 -0.01978,-1.515259 l 0.02508,-1.398381 3.889918,0 3.88992,0 0.452315,-0.308671 c 0.619504,-0.422769 1.745626,-1.60011 2.108549,-2.204448 0.3177,-0.529044 0.581086,-1.603757 0.697912,-2.847755 l 0.06168,-0.656787 -4.102735,0.02356 -4.102735,0.02357 -0.02414,2.331654 -0.02414,2.331663 -1.468496,-0.02487 -1.468495,-0.02486 -0.02376,-3.234059 -0.02376,-3.234067 13.163543,0 13.163548,0 0,3.256679 0,3.256679 -1.49264,0 -1.492651,0 0,-2.352047 0,-2.352041 -4.054002,0 -4.054004,0 0.03618,0.565388 c 0.05986,0.935578 0.37741,2.340785 0.637343,2.820353 0.324718,0.599087 1.526859,1.857336 2.217741,2.321258 l 0.557886,0.374617 3.912535,-0.06506 3.91254,-0.06506 0,1.547393 0,1.547402 -4.248079,0 -4.248073,0 -0.756053,-0.389034 c -1.468685,-0.755734 -2.7732,-1.965484 -3.935567,-3.649673 -0.08865,-0.128445 -0.128191,-0.13943 -0.168501,-0.04678 -0.148205,0.34057 -1.198893,1.610627 -1.769381,2.138814 -0.771946,0.714703 -1.978262,1.535896 -2.607341,1.774921 -0.419715,0.159486 -0.743457,0.171771 -4.524775,0.171771 -3.245309,0 -4.081825,-0.02374 -4.117564,-0.116879 z m 59.123036,-0.518309 c -0.57219,-0.34155 -1.02829,-0.669635 -1.01357,-0.729067 0.0148,-0.05943 0.16739,-0.279674 0.33923,-0.489399 l 0.31248,-0.381324 0,-6.888505 0,-6.888504 1.44741,0 1.44742,0 0,7.393498 0,7.3935 -0.28356,0.415553 c -0.31589,0.462906 -0.76714,0.813136 -1.03376,0.802342 -0.0964,-0.0044 -0.64347,-0.286545 -1.21565,-0.628094 z m 38.0264,0.57496 c -0.37255,-0.05275 -0.39097,-0.138572 -0.39246,-1.829093 l -8.6e-4,-1.391781 1.15341,0.04574 c 0.914,0.0363 1.27546,0.01343 1.74141,-0.10987 0.65332,-0.172915 1.52371,-0.526158 2.02443,-0.821593 l 0.32812,-0.193602 -0.73272,-0.856627 c -1.64392,-1.921924 -3.00653,-3.992487 -3.93624,-5.981361 -0.28583,-0.611468 -0.56734,-1.099967 -0.62557,-1.08556 -0.0581,0.01438 -0.68029,0.392568 -1.38235,0.840357 l -1.27645,0.814168 -0.005,5.269483 -0.005,5.269483 -1.58309,0 -1.58312,0 0,-4.170989 c 0,-3.683251 -0.016,-4.164854 -0.13664,-4.118549 -0.0751,0.02885 -0.78772,0.548658 -1.58349,1.155155 -0.79579,0.606495 -1.46047,1.085931 -1.47709,1.065417 -0.0166,-0.02053 -0.0957,-0.200134 -0.17589,-0.399153 l -0.14562,-0.361856 -0.005,0.339245 -0.005,0.339235 -0.8594,0 -0.85941,0 0,3.077831 0,3.07784 -1.60571,-0.02469 -1.60572,-0.02469 -0.0239,-3.053131 -0.0239,-3.053132 -5.33613,0 -5.33612,0 0,-1.085561 0,-1.085559 5.3368,0 5.3368,0 0.0231,-7.304906 0.0231,-7.3049068 1.58311,0 1.5831,0 0.0231,7.3049068 0.0231,7.304906 0.65533,-0.0026 0.65532,-0.0026 1.94496,-1.156185 1.94495,-1.156184 0,-3.070164 0,-3.070172 -1.92233,-0.02443 -1.92235,-0.02443 0,-0.8576059 0,-0.8575978 1.94496,0 1.94496,0 0,-2.2163517 0,-2.2163519 1.58311,0 1.5831,0 0,2.2163519 0,2.2163517 4.43271,0 4.4327,0 0,-2.4877439 0,-2.4877352 1.4474,0 1.44742,0 0,2.4877352 0,2.4877439 3.07574,0 3.07576,0 0,0.8581955 0,0.8581952 -3.05314,0.02382 -3.05313,0.02382 -0.0251,1.243868 -0.0251,1.243868 2.8069,0 2.80693,0 0,1.049893 c 0,1.308497 -0.13349,1.844376 -0.78115,3.135746 -0.82906,1.653113 -1.89513,3.241267 -3.31218,4.934259 -0.34622,0.413629 -0.61509,0.764821 -0.59751,0.780433 0.10683,0.09486 0.85134,0.424595 1.41692,0.627529 0.60548,0.217254 0.77909,0.237267 2.05804,0.237267 l 1.3968,0 0,1.583112 0,1.583104 -0.97249,0.02105 c -1.5543,0.0337 -1.74767,0.01473 -2.49653,-0.24457 -0.78075,-0.270343 -2.21629,-0.940221 -3.14142,-1.465895 l -0.59462,-0.337876 -0.67186,0.432949 c -0.87456,0.563551 -2.65101,1.431805 -3.56669,1.74324 -0.59081,0.200931 -0.90643,0.249559 -1.7188,0.264815 -0.54729,0.01031 -1.12325,5.38e-4 -1.27986,-0.02166 z m 8.38501,-7.713467 c 0.7447,-1.110581 1.58571,-2.772453 2.02893,-4.009138 l 0.31608,-0.88202 -3.7061,0 -3.70608,0 0.18835,0.520164 c 0.27866,0.769516 1.19921,2.664454 1.6754,3.448801 0.46138,0.759951 1.06421,1.571244 1.60961,2.166225 l 0.35821,0.390775 0.3014,-0.345543 c 0.16577,-0.190043 0.58617,-0.770218 0.9342,-1.289264 z m -10.33783,-5.524398 c 0.90051,-0.522589 1.01344,-0.615687 1.01479,-0.836787 l 0.002,-0.248773 3.34714,0 3.34714,0 0,-1.267345 0,-1.267346 -4.41008,0.02348 -4.41009,0.02347 -0.0243,2.111368 c -0.0134,1.161253 0.009,2.09755 0.0482,2.080656 0.0399,-0.01689 0.52841,-0.29532 1.0857,-0.618728 z m -65.745539,4.794551 0,-8.413078 -14.971664,0 -14.971665,0 0,-0.8593993 0,-0.8593998 3.120982,0 3.120981,0 0,-0.5427843 0,-0.5427755 -2.80436,0 -2.80436,0 0,-1.6735762 0,-1.6735675 1.447412,0 1.447411,0 0,0.8141677 0,0.8141677 1.356949,0 1.356948,0 0,-0.7689357 0,-0.7689356 1.447412,0 1.447411,0 0,0.7689356 0,0.7689357 2.171118,0 2.171118,0 0,0.8594086 0,0.8593997 -2.171118,0 -2.171118,0 0,0.5427755 0,0.5427843 6.106269,0 6.106269,0 0,-0.5427843 0,-0.5427755 -3.07575,0 -3.07575,0 0,-1.6735762 0,-1.6735675 1.447412,0 1.447412,0 0,0.8141677 0,0.8141677 1.628338,0 1.628338,0 0,-0.7689357 0,-0.7689356 1.447412,0 1.447411,0 0,0.767177 0,0.7671682 1.967576,0.024344 1.967568,0.024344 0.02602,0.836788 0.02602,0.8367881 -1.993584,0 -1.993584,0 0,0.5427755 0,0.5427844 14.383665,0 14.38366,0 0,-0.5427844 0,-0.5427755 -11.89592,0 -11.895933,0 0,-0.8593998 0,-0.8594084 13.524273,0 13.52425,0 0,1.402184 0,1.4021841 3.52806,0 3.52808,0 0,-0.5427844 0,-0.5427755 -2.31021,0 -2.31022,0 0.026,-0.8367881 0.026,-0.836788 6.4455,-0.023218 6.44551,-0.023218 0,0.8600062 0,0.8600062 -2.57821,0 -2.57821,0 0,0.5427756 0,0.5427843 2.66868,0 2.66866,0 0,0.8593998 0,0.8594002 -0.31662,0 -0.31662,0 0,7.598909 0,7.598911 3.03052,0 3.03051,0 0,0.814168 0,0.814167 -4.4327,0 -4.43269,0 0,-8.413078 0,-8.413077 -0.94987,0 -0.94987,0 0,8.413077 0,8.413078 -1.5831,0 -1.5831,0 0,-8.413078 0,-8.413077 -3.52807,0 -3.52807,0 0,8.413077 0,8.413078 -1.62834,0 -1.62833,0 0,-8.413078 0,-8.413077 -10.13189,0 -10.13188,0 0,8.413077 0,8.413078 -1.402181,0 -1.402188,0 0,-8.413078 z m 5.608729,1.266488 0,-7.146599 1.53789,0 1.53786,0 0,6.242817 0,6.242816 4.45532,-0.02347 4.45532,-0.02347 0.0233,-5.359947 0.0233,-5.359946 -3.52878,0 -3.52879,0 0,-0.859401 0,-0.859399 5.06594,0 5.06594,0 0,7.146599 0,7.14659 -7.55367,0 -7.55369,0 0,-7.14659 z M 85.866742,15.546779 c -1.128612,-0.109819 -2.386819,-0.37707 -3.835779,-0.814749 -3.319938,-1.00284 -5.976786,-1.150804 -9.634334,-0.536572 -1.175752,0.197448 -2.84779,0.602718 -3.700539,0.896939 -0.293879,0.101396 -0.582822,0.184358 -0.642094,0.184358 -0.141941,0 -0.06561,-1.824138 0.08043,-1.922313 0.209118,-0.140565 2.310726,-0.787589 3.267094,-1.005838 1.562297,-0.356528 2.770817,-0.512221 4.432698,-0.571071 2.414317,-0.08551 4.17074,0.146586 6.579085,0.869293 2.08273,0.624992 3.257557,0.821627 4.893677,0.819099 2.375099,-0.0035 4.904202,-0.497961 7.16084,-1.399473 0.546293,-0.218242 0.998623,-0.389198 1.005172,-0.379903 0.007,0.0093 0.03621,0.492121 0.06601,1.072946 l 0.05406,1.056035 -0.697403,0.290642 c -1.426355,0.594444 -3.147143,1.073172 -4.708958,1.310048 -1.114824,0.169077 -3.258342,0.233861 -4.319971,0.130559 z"
     id="path3831"
     inkscape:connector-curvature="0" />
  <path
     style="fill:#05c697;fill-opacity:1;stroke:#668e00;stroke-width:0;stroke-linecap:round;stroke-linejoin:round;stroke-miterlimit:4;stroke-opacity:1;stroke-dasharray:none;stroke-dashoffset:0"
     d="m 142.72161,16.000944 c 0.65248,-0.915842 1.60106,-2.242646 2.10799,-2.94845 0.50693,-0.705796 0.9217,-1.345889 0.9217,-1.42243 0,-0.0765 -0.71767,-1.29014 -1.59479,-2.6969068 -0.87715,-1.4067584 -1.89631,-2.9620521 -1.89631,-2.9620521 0,0 0.17432,-0.00173 1.49142,0.00173 l 1.43107,0.00347 1.78703,2.6967417 c 0.98286,1.4832052 1.8082,2.7847622 1.83408,2.8923372 0.0259,0.107583 -0.90992,1.524235 -2.07956,3.148126 l -2.12666,2.952513 -1.53112,0 -1.53113,0 1.18628,-1.665172 z"
     id="path3780"
     inkscape:connector-curvature="0"
     sodipodi:nodetypes="cssscscsssccccc" />
  <g
     inkscape:groupmode="layer"
     id="layer1"
     inkscape:label="Layer"
     style="display:inline"
     transform="translate(0,-380)" />
  <g
     inkscape:groupmode="layer"
     id="layer2"
     inkscape:label="Layer#1"
     transform="translate(0,-380)" />
</svg>
