<?xml version="1.0" encoding="UTF-8" standalone="no"?>
<!-- Created with Inkscape (http://www.inkscape.org/) -->

<svg
   xmlns:dc="http://purl.org/dc/elements/1.1/"
   xmlns:cc="http://creativecommons.org/ns#"
   xmlns:rdf="http://www.w3.org/1999/02/22-rdf-syntax-ns#"
   xmlns:svg="http://www.w3.org/2000/svg"
   xmlns="http://www.w3.org/2000/svg"
   xmlns:sodipodi="http://sodipodi.sourceforge.net/DTD/sodipodi-0.dtd"
   xmlns:inkscape="http://www.inkscape.org/namespaces/inkscape"
   width="120"
   height="120"
   id="svg2986"
   version="1.1"
   inkscape:version="0.48.5 r10040"
   sodipodi:docname="logo.svg">
  <defs
     id="defs2988" />
  <sodipodi:namedview
     id="base"
     pagecolor="#ffffff"
     bordercolor="#666666"
     borderopacity="1.0"
     inkscape:pageopacity="0.0"
     inkscape:pageshadow="2"
     inkscape:zoom="5.6"
     inkscape:cx="39.907477"
     inkscape:cy="62.129348"
     inkscape:document-units="px"
     inkscape:current-layer="layer1"
     showgrid="false"
     inkscape:window-width="1920"
     inkscape:window-height="1006"
     inkscape:window-x="-9"
     inkscape:window-y="-9"
     inkscape:window-maximized="1" />
  <metadata
     id="metadata2991">
    <rdf:RDF>
      <cc:Work
         rdf:about="">
        <dc:format>image/svg+xml</dc:format>
        <dc:type
           rdf:resource="http://purl.org/dc/dcmitype/StillImage" />
        <dc:title></dc:title>
      </cc:Work>
    </rdf:RDF>
  </metadata>
  <g
     inkscape:groupmode="layer"
     id="layer2"
     inkscape:label="Layer"
     style="display:none"
     transform="translate(0,50)">
    <path
       style="fill:#05b397;fill-opacity:1"
       d="m 42.999752,7.7574508 c -0.06905,0.0758 -5.386151,6.4111602 -11.813758,14.0765102 -13.644179,16.2716 -13.169783,15.7118 -13.657955,16.0433 -0.368724,0.2502 -0.408679,0.254 -1.408667,0.1361 -2.087271,-0.2463 -5.981628,-0.1047 -7.4040141,0.2654 -1.839113,0.4789 -3.078752,1.1917 -4.423356,2.5451 -0.838857,0.8443 -1.135498,1.2332 -1.541368,2.0245 -0.276419,0.539 -0.611434,1.3406 -0.745165,1.783 -0.770422,2.5484 0.795715,5.8518 3.378761,7.125 l 0.704335,0.3471 2.83435,0 c 2.4325451,0 2.8770881,-0.029 3.1575951,-0.1837 2.168597,-1.2002 11.848326,-12.3989 25.999111,-30.0824 2.444046,-3.0541 4.479861,-5.564 4.522029,-5.57674 0.07354,-0.023 20.911549,33.78124 21.04836,34.14484 0.174193,0.4629 0.560715,0.4493 -12.637184,0.4493 -12.102826,0 -12.635561,-0.013 -13.426579,-0.211 -1.385738,-0.3545 -2.818067,-1.1903 -4.324678,-2.518 -1.205224,-1.0619 -2.507703,-2.6294 -2.507703,-3.0214 0,-0.2006 0.205257,-0.5532 0.626076,-1.0752 1.590178,-1.973 10.523495,-12.5495 10.56501,-12.5079 0.02571,0.025 2.56155,4.0808 5.634673,9.0099 l 5.587036,8.9625 3.031698,-0.041 c 1.666391,-0.022 3.066316,-0.072 3.113363,-0.1156 0.08185,-0.076 -16.726229,-26.28 -16.883605,-26.3223 -0.109661,-0.029 -24.685715,28.1475 -24.685715,28.3027 0,0.2247 0.836613,0.6085 1.606019,0.7384 1.81951,0.3068 3.256254,-0.2167 6.356019,-2.3173 1.015369,-0.6881 1.948058,-1.2842 2.072169,-1.3236 0.171664,-0.054 0.457743,0.106 1.194306,0.667 2.912597,2.2183 4.725188,3.1289 6.992301,3.5114 0.593993,0.1002 33.443964,0.1437 33.443964,0.045 0,-0.038 -5.912575,-10.1785 -13.140768,-22.5386 C 46.079538,12.676431 43.097061,7.6514808 42.999752,7.7581108 z M 10.328181,40.776261 c 1.0744,0.012 2.27951,0.1155 3.54889,0.313 l 0.816618,0.1259 -0.03402,0.3266 c -0.04257,0.4097 -0.183748,0.6078 -1.864613,2.6098 -1.680496,2.0017 -4.4946771,4.8532 -5.0324151,5.1005 -0.477221,0.2195 -1.851418,0.2384 -2.609782,0.033 -0.897344,-0.2417 -1.750196,-1.1785 -2.106193,-2.3104 -0.245501,-0.7804 -0.123027,-1.6646 0.387894,-2.773 0.579204,-1.2566 1.966026,-2.4323 3.542088,-3.0045 0.806206,-0.2927 1.970168,-0.4347 3.3515401,-0.4219 z"
       id="path3868-1"
       inkscape:connector-curvature="0"
       sodipodi:nodetypes="ssssssssccccsssssssscccccsssscsssssscccsssssss" />
  </g>
  <g
     inkscape:label="Layer 1"
     inkscape:groupmode="layer"
     id="layer1"
     transform="translate(0,-932.36218)">
    <path
       style="fill:#05c697;fill-opacity:1"
       d="m 73.292789,954.43802 c -0.121129,0.13298 -9.448511,11.24661 -20.723968,24.69334 -23.934936,28.54404 -23.10274,27.56194 -23.959102,28.14354 -0.646824,0.4389 -0.716914,0.4455 -2.471116,0.2387 -3.66154,-0.432 -10.49311,-0.1837 -12.988294,0.4656 -3.2262154,0.8401 -5.4008185,2.0905 -7.7595531,4.4647 -1.4715439,1.4811 -1.9919181,2.1633 -2.7039042,3.5513 -0.4849005,0.9456 -1.0725926,2.3518 -1.3071864,3.1279 -1.3514919,4.4704 1.3958631,10.2653 5.9271021,12.4988 l 1.2355611,0.6089 4.9720825,0 c 4.267227,0 5.047054,-0.05 5.539126,-0.3222 3.804203,-2.1055 20.784608,-21.7505 45.608244,-52.77128 4.287402,-5.35756 7.858676,-9.76049 7.932648,-9.78284 0.129006,-0.0404 36.683531,59.25982 36.923521,59.89762 0.30557,0.812 0.98362,0.7882 -22.168441,0.7882 -21.231058,0 -22.165593,-0.023 -23.553216,-0.3701 -2.430894,-0.622 -4.943518,-2.0881 -7.586451,-4.4172 -2.114232,-1.8628 -4.399071,-4.6125 -4.399071,-5.3002 0,-0.3519 0.360067,-0.9705 1.098278,-1.8861 2.789527,-3.4611 18.460559,-22.01463 18.533386,-21.94165 0.0451,0.0439 4.49353,7.15855 9.884473,15.80535 l 9.800909,15.7223 5.318275,-0.072 c 2.923222,-0.038 5.379008,-0.1263 5.461538,-0.2028 0.14358,-0.1333 -29.341544,-46.10095 -29.617616,-46.17515 -0.192371,-0.0508 -43.304255,49.37695 -43.304255,49.64925 0,0.3942 1.467607,1.0674 2.817316,1.2953 3.191827,0.5382 5.712197,-0.3802 11.149877,-4.0651 1.781183,-1.207 3.417328,-2.2527 3.635046,-2.3219 0.301137,-0.095 0.802983,0.186 2.095079,1.1701 5.109346,3.8914 8.289035,5.4887 12.266057,6.1598 1.041996,0.1758 58.668176,0.252 58.668176,0.078 0,-0.066 -10.37198,-17.8553 -23.051837,-39.53768 C 78.695421,963.06611 73.46349,954.25122 73.292789,954.43828 z m -57.313228,57.92228 c 1.884738,0.021 3.998769,0.2027 6.225545,0.5492 l 1.432531,0.2208 -0.05968,0.5729 c -0.07468,0.7187 -0.322334,1.0662 -3.270947,4.5782 -2.947965,3.5114 -7.884666,8.5135 -8.827979,8.9474 -0.837152,0.3851 -3.2478006,0.4182 -4.5781404,0.057 -1.5741415,-0.424 -3.0702352,-2.0674 -3.694733,-4.053 -0.4306629,-1.369 -0.215817,-2.92 0.6804522,-4.8644 1.0160534,-2.2044 3.4488497,-4.2668 6.2136132,-5.2706 1.414266,-0.5134 3.456116,-0.7625 5.879351,-0.7401 z"
       id="path3868"
       inkscape:connector-curvature="0"
       sodipodi:nodetypes="ssssssssccccsssssssscccccsssscsssssscccsssssss" />
  </g>
</svg>
